# xmcd
#
# Track frame offsets:
#	183
#	14933
#	26403
#	39110
#	51720
#	60483
#	72500
#	83495
#	95063
#	111950
#	125345
#	135610
#	149103
#	162670
#	172658
#	185823
#	199258
#	212273
#	223243
#	238973
#
# Disc length: 3320
#
# Revision: 3
# Processed by: cddbd v1.5.1PL0 Copyright (c) Steve Scherf et al.
# Submitted via: MusicManager 7.0.4.0 
# Normalized: r2:TDELIM( - )
#
DISCID=380cf614
DTITLE=Various Artist - Kings Of Country
DYEAR=1995
DGENRE=
TTITLE0=Don Gibson - I Can't Stop Loving You
TTITLE1=George Jones - Talk Back Trembling Lips
TTITLE2=Kenny Rogers - Reuben James
TTITLE3=Willie Nelson - Shelter Of Your Arms
TTITLE4=Waylon Jennings - Loves Gonna Live Here
TTITLE5=Jack Greene - There Goes my Everything
TTITLE6=Hank Locklin - Send Me The Pillow That You Dream On
TTITLE7=Johnny Paycheck - Heartaches By The Number
TTITLE8=Ferlin Husky - For The Good Times
TTITLE9=Don Willams - Where Do I Go From Here
TTITLE10=Don Gibson - Sea Oh Heartbreak
TTITLE11=George Jones - Almost Persuades
TTITLE12=Kenny Rogers - Ruby Don't Take Your Love To Town
TTITLE13=Willie Nelson - Broken Promises
TTITLE14=Johnny Darrell - Son Of Hickory Hollers Tramp
TTITLE15=Johnny Russel - Catfish John
TTITLE16=Faron Young - It's Four In The Morning
TTITLE17=Stonewall Jackson - Things To Think About
TTITLE18=Don Williams - Tears
TTITLE19=Carl Perkins - Daddy Sang Bass
EXTD=
EXTT0=
EXTT1=
EXTT2=
EXTT3=
EXTT4=
EXTT5=
EXTT6=
EXTT7=
EXTT8=
EXTT9=
EXTT10=
EXTT11=
EXTT12=
EXTT13=
EXTT14=
EXTT15=
EXTT16=
EXTT17=
EXTT18=
EXTT19=
PLAYORDER=
